
<svg width="180" height="180" viewBox="0 0 180 180" xmlns="http://www.w3.org/2000/svg">
  <defs>
    <linearGradient id="bg" x1="0%" y1="0%" x2="100%" y2="100%">
      <stop offset="0%" style="stop-color:#3b82f6;stop-opacity:1" />
      <stop offset="100%" style="stop-color:#1d4ed8;stop-opacity:1" />
    </linearGradient>
    <linearGradient id="book" x1="0%" y1="0%" x2="100%" y2="100%">
      <stop offset="0%" style="stop-color:#ffffff;stop-opacity:1" />
      <stop offset="100%" style="stop-color:#f8fafc;stop-opacity:1" />
    </linearGradient>
  </defs>
  
  <!-- Background circle -->
  <circle cx="90" cy="90" r="90" fill="url(#bg)"/>
  
  <!-- Book icon -->
  <rect x="45" y="54" width="90" height="72" rx="2" fill="url(#book)" stroke="#e2e8f0" stroke-width="1"/>
  
  <!-- Book pages -->
  <line x1="62.99999999999999" y1="62.99999999999999" x2="62.99999999999999" y2="117" stroke="#cbd5e1" stroke-width="1"/>
  <line x1="72" y1="62.99999999999999" x2="72" y2="117" stroke="#cbd5e1" stroke-width="1"/>
  <line x1="81" y1="62.99999999999999" x2="81" y2="117" stroke="#cbd5e1" stroke-width="1"/>
  <line x1="90" y1="62.99999999999999" x2="90" y2="117" stroke="#cbd5e1" stroke-width="1"/>
  <line x1="99.00000000000001" y1="62.99999999999999" x2="99.00000000000001" y2="117" stroke="#cbd5e1" stroke-width="1"/>
  <line x1="108" y1="62.99999999999999" x2="108" y2="117" stroke="#cbd5e1" stroke-width="1"/>
  <line x1="117" y1="62.99999999999999" x2="117" y2="117" stroke="#cbd5e1" stroke-width="1"/>
  
  <!-- Graduation cap -->
  <path d="M36 90 Q54 72 72 90 L108 90 Q125.99999999999999 72 144 90 L144 99.00000000000001 L36 99.00000000000001 Z" fill="#fbbf24"/>
  
  <!-- Tassel -->
  <line x1="144" y1="90" x2="153" y2="108" stroke="#f59e0b" stroke-width="2"/>
  <circle cx="153" cy="108" r="2" fill="#f59e0b"/>
  
  <!-- Communication lines -->
  <path d="M27 135 Q36 125.99999999999999 45 135" stroke="#ffffff" stroke-width="2" fill="none" opacity="0.8"/>
  <path d="M135 135 Q144 125.99999999999999 153 135" stroke="#ffffff" stroke-width="2" fill="none" opacity="0.8"/>
  
  <!-- Small dots for communication -->
  <circle cx="36" cy="135" r="1.5" fill="#ffffff" opacity="0.8"/>
  <circle cx="144" cy="135" r="1.5" fill="#ffffff" opacity="0.8"/>
</svg>