
<svg width="32" height="32" viewBox="0 0 32 32" xmlns="http://www.w3.org/2000/svg">
  <defs>
    <linearGradient id="bg" x1="0%" y1="0%" x2="100%" y2="100%">
      <stop offset="0%" style="stop-color:#3b82f6;stop-opacity:1" />
      <stop offset="100%" style="stop-color:#1d4ed8;stop-opacity:1" />
    </linearGradient>
    <linearGradient id="book" x1="0%" y1="0%" x2="100%" y2="100%">
      <stop offset="0%" style="stop-color:#ffffff;stop-opacity:1" />
      <stop offset="100%" style="stop-color:#f8fafc;stop-opacity:1" />
    </linearGradient>
  </defs>
  
  <!-- Background circle -->
  <circle cx="16" cy="16" r="16" fill="url(#bg)"/>
  
  <!-- Book icon -->
  <rect x="8" y="9.6" width="16" height="12.8" rx="2" fill="url(#book)" stroke="#e2e8f0" stroke-width="1"/>
  
  <!-- Book pages -->
  <line x1="11.2" y1="11.2" x2="11.2" y2="20.8" stroke="#cbd5e1" stroke-width="1"/>
  <line x1="12.8" y1="11.2" x2="12.8" y2="20.8" stroke="#cbd5e1" stroke-width="1"/>
  <line x1="14.4" y1="11.2" x2="14.4" y2="20.8" stroke="#cbd5e1" stroke-width="1"/>
  <line x1="16" y1="11.2" x2="16" y2="20.8" stroke="#cbd5e1" stroke-width="1"/>
  <line x1="17.6" y1="11.2" x2="17.6" y2="20.8" stroke="#cbd5e1" stroke-width="1"/>
  <line x1="19.2" y1="11.2" x2="19.2" y2="20.8" stroke="#cbd5e1" stroke-width="1"/>
  <line x1="20.8" y1="11.2" x2="20.8" y2="20.8" stroke="#cbd5e1" stroke-width="1"/>
  
  <!-- Graduation cap -->
  <path d="M6.4 16 Q9.6 12.8 12.8 16 L19.2 16 Q22.4 12.8 25.6 16 L25.6 17.6 L6.4 17.6 Z" fill="#fbbf24"/>
  
  <!-- Tassel -->
  <line x1="25.6" y1="16" x2="27.2" y2="19.2" stroke="#f59e0b" stroke-width="2"/>
  <circle cx="27.2" cy="19.2" r="2" fill="#f59e0b"/>
  
  <!-- Communication lines -->
  <path d="M4.8 24 Q6.4 22.4 8 24" stroke="#ffffff" stroke-width="2" fill="none" opacity="0.8"/>
  <path d="M24 24 Q25.6 22.4 27.2 24" stroke="#ffffff" stroke-width="2" fill="none" opacity="0.8"/>
  
  <!-- Small dots for communication -->
  <circle cx="6.4" cy="24" r="1.5" fill="#ffffff" opacity="0.8"/>
  <circle cx="25.6" cy="24" r="1.5" fill="#ffffff" opacity="0.8"/>
</svg>