
<svg width="128" height="128" viewBox="0 0 128 128" xmlns="http://www.w3.org/2000/svg">
  <defs>
    <linearGradient id="bg" x1="0%" y1="0%" x2="100%" y2="100%">
      <stop offset="0%" style="stop-color:#3b82f6;stop-opacity:1" />
      <stop offset="100%" style="stop-color:#1d4ed8;stop-opacity:1" />
    </linearGradient>
    <linearGradient id="book" x1="0%" y1="0%" x2="100%" y2="100%">
      <stop offset="0%" style="stop-color:#ffffff;stop-opacity:1" />
      <stop offset="100%" style="stop-color:#f8fafc;stop-opacity:1" />
    </linearGradient>
  </defs>
  
  <!-- Background circle -->
  <circle cx="64" cy="64" r="64" fill="url(#bg)"/>
  
  <!-- Book icon -->
  <rect x="32" y="38.4" width="64" height="51.2" rx="2" fill="url(#book)" stroke="#e2e8f0" stroke-width="1"/>
  
  <!-- Book pages -->
  <line x1="44.8" y1="44.8" x2="44.8" y2="83.2" stroke="#cbd5e1" stroke-width="1"/>
  <line x1="51.2" y1="44.8" x2="51.2" y2="83.2" stroke="#cbd5e1" stroke-width="1"/>
  <line x1="57.6" y1="44.8" x2="57.6" y2="83.2" stroke="#cbd5e1" stroke-width="1"/>
  <line x1="64" y1="44.8" x2="64" y2="83.2" stroke="#cbd5e1" stroke-width="1"/>
  <line x1="70.4" y1="44.8" x2="70.4" y2="83.2" stroke="#cbd5e1" stroke-width="1"/>
  <line x1="76.8" y1="44.8" x2="76.8" y2="83.2" stroke="#cbd5e1" stroke-width="1"/>
  <line x1="83.2" y1="44.8" x2="83.2" y2="83.2" stroke="#cbd5e1" stroke-width="1"/>
  
  <!-- Graduation cap -->
  <path d="M25.6 64 Q38.4 51.2 51.2 64 L76.8 64 Q89.6 51.2 102.4 64 L102.4 70.4 L25.6 70.4 Z" fill="#fbbf24"/>
  
  <!-- Tassel -->
  <line x1="102.4" y1="64" x2="108.8" y2="76.8" stroke="#f59e0b" stroke-width="2"/>
  <circle cx="108.8" cy="76.8" r="2" fill="#f59e0b"/>
  
  <!-- Communication lines -->
  <path d="M19.2 96 Q25.6 89.6 32 96" stroke="#ffffff" stroke-width="2" fill="none" opacity="0.8"/>
  <path d="M96 96 Q102.4 89.6 108.8 96" stroke="#ffffff" stroke-width="2" fill="none" opacity="0.8"/>
  
  <!-- Small dots for communication -->
  <circle cx="25.6" cy="96" r="1.5" fill="#ffffff" opacity="0.8"/>
  <circle cx="102.4" cy="96" r="1.5" fill="#ffffff" opacity="0.8"/>
</svg>