
<svg width="512" height="512" viewBox="0 0 512 512" xmlns="http://www.w3.org/2000/svg">
  <defs>
    <linearGradient id="bg" x1="0%" y1="0%" x2="100%" y2="100%">
      <stop offset="0%" style="stop-color:#3b82f6;stop-opacity:1" />
      <stop offset="100%" style="stop-color:#1d4ed8;stop-opacity:1" />
    </linearGradient>
    <linearGradient id="book" x1="0%" y1="0%" x2="100%" y2="100%">
      <stop offset="0%" style="stop-color:#ffffff;stop-opacity:1" />
      <stop offset="100%" style="stop-color:#f8fafc;stop-opacity:1" />
    </linearGradient>
  </defs>
  
  <!-- Background circle -->
  <circle cx="256" cy="256" r="256" fill="url(#bg)"/>
  
  <!-- Book icon -->
  <rect x="128" y="153.6" width="256" height="204.8" rx="2" fill="url(#book)" stroke="#e2e8f0" stroke-width="1"/>
  
  <!-- Book pages -->
  <line x1="179.2" y1="179.2" x2="179.2" y2="332.8" stroke="#cbd5e1" stroke-width="1"/>
  <line x1="204.8" y1="179.2" x2="204.8" y2="332.8" stroke="#cbd5e1" stroke-width="1"/>
  <line x1="230.4" y1="179.2" x2="230.4" y2="332.8" stroke="#cbd5e1" stroke-width="1"/>
  <line x1="256" y1="179.2" x2="256" y2="332.8" stroke="#cbd5e1" stroke-width="1"/>
  <line x1="281.6" y1="179.2" x2="281.6" y2="332.8" stroke="#cbd5e1" stroke-width="1"/>
  <line x1="307.2" y1="179.2" x2="307.2" y2="332.8" stroke="#cbd5e1" stroke-width="1"/>
  <line x1="332.8" y1="179.2" x2="332.8" y2="332.8" stroke="#cbd5e1" stroke-width="1"/>
  
  <!-- Graduation cap -->
  <path d="M102.4 256 Q153.6 204.8 204.8 256 L307.2 256 Q358.4 204.8 409.6 256 L409.6 281.6 L102.4 281.6 Z" fill="#fbbf24"/>
  
  <!-- Tassel -->
  <line x1="409.6" y1="256" x2="435.2" y2="307.2" stroke="#f59e0b" stroke-width="2"/>
  <circle cx="435.2" cy="307.2" r="2" fill="#f59e0b"/>
  
  <!-- Communication lines -->
  <path d="M76.8 384 Q102.4 358.4 128 384" stroke="#ffffff" stroke-width="2" fill="none" opacity="0.8"/>
  <path d="M384 384 Q409.6 358.4 435.2 384" stroke="#ffffff" stroke-width="2" fill="none" opacity="0.8"/>
  
  <!-- Small dots for communication -->
  <circle cx="102.4" cy="384" r="1.5" fill="#ffffff" opacity="0.8"/>
  <circle cx="409.6" cy="384" r="1.5" fill="#ffffff" opacity="0.8"/>
</svg>