
<svg width="384" height="384" viewBox="0 0 384 384" xmlns="http://www.w3.org/2000/svg">
  <defs>
    <linearGradient id="bg" x1="0%" y1="0%" x2="100%" y2="100%">
      <stop offset="0%" style="stop-color:#3b82f6;stop-opacity:1" />
      <stop offset="100%" style="stop-color:#1d4ed8;stop-opacity:1" />
    </linearGradient>
    <linearGradient id="book" x1="0%" y1="0%" x2="100%" y2="100%">
      <stop offset="0%" style="stop-color:#ffffff;stop-opacity:1" />
      <stop offset="100%" style="stop-color:#f8fafc;stop-opacity:1" />
    </linearGradient>
  </defs>
  
  <!-- Background circle -->
  <circle cx="192" cy="192" r="192" fill="url(#bg)"/>
  
  <!-- Book icon -->
  <rect x="96" y="115.19999999999999" width="192" height="153.60000000000002" rx="2" fill="url(#book)" stroke="#e2e8f0" stroke-width="1"/>
  
  <!-- Book pages -->
  <line x1="134.39999999999998" y1="134.39999999999998" x2="134.39999999999998" y2="249.60000000000002" stroke="#cbd5e1" stroke-width="1"/>
  <line x1="153.60000000000002" y1="134.39999999999998" x2="153.60000000000002" y2="249.60000000000002" stroke="#cbd5e1" stroke-width="1"/>
  <line x1="172.8" y1="134.39999999999998" x2="172.8" y2="249.60000000000002" stroke="#cbd5e1" stroke-width="1"/>
  <line x1="192" y1="134.39999999999998" x2="192" y2="249.60000000000002" stroke="#cbd5e1" stroke-width="1"/>
  <line x1="211.20000000000002" y1="134.39999999999998" x2="211.20000000000002" y2="249.60000000000002" stroke="#cbd5e1" stroke-width="1"/>
  <line x1="230.39999999999998" y1="134.39999999999998" x2="230.39999999999998" y2="249.60000000000002" stroke="#cbd5e1" stroke-width="1"/>
  <line x1="249.60000000000002" y1="134.39999999999998" x2="249.60000000000002" y2="249.60000000000002" stroke="#cbd5e1" stroke-width="1"/>
  
  <!-- Graduation cap -->
  <path d="M76.80000000000001 192 Q115.19999999999999 153.60000000000002 153.60000000000002 192 L230.39999999999998 192 Q268.79999999999995 153.60000000000002 307.20000000000005 192 L307.20000000000005 211.20000000000002 L76.80000000000001 211.20000000000002 Z" fill="#fbbf24"/>
  
  <!-- Tassel -->
  <line x1="307.20000000000005" y1="192" x2="326.4" y2="230.39999999999998" stroke="#f59e0b" stroke-width="2"/>
  <circle cx="326.4" cy="230.39999999999998" r="2" fill="#f59e0b"/>
  
  <!-- Communication lines -->
  <path d="M57.599999999999994 288 Q76.80000000000001 268.79999999999995 96 288" stroke="#ffffff" stroke-width="2" fill="none" opacity="0.8"/>
  <path d="M288 288 Q307.20000000000005 268.79999999999995 326.4 288" stroke="#ffffff" stroke-width="2" fill="none" opacity="0.8"/>
  
  <!-- Small dots for communication -->
  <circle cx="76.80000000000001" cy="288" r="1.5" fill="#ffffff" opacity="0.8"/>
  <circle cx="307.20000000000005" cy="288" r="1.5" fill="#ffffff" opacity="0.8"/>
</svg>