
<svg width="152" height="152" viewBox="0 0 152 152" xmlns="http://www.w3.org/2000/svg">
  <defs>
    <linearGradient id="bg" x1="0%" y1="0%" x2="100%" y2="100%">
      <stop offset="0%" style="stop-color:#3b82f6;stop-opacity:1" />
      <stop offset="100%" style="stop-color:#1d4ed8;stop-opacity:1" />
    </linearGradient>
    <linearGradient id="book" x1="0%" y1="0%" x2="100%" y2="100%">
      <stop offset="0%" style="stop-color:#ffffff;stop-opacity:1" />
      <stop offset="100%" style="stop-color:#f8fafc;stop-opacity:1" />
    </linearGradient>
  </defs>
  
  <!-- Background circle -->
  <circle cx="76" cy="76" r="76" fill="url(#bg)"/>
  
  <!-- Book icon -->
  <rect x="38" y="45.6" width="76" height="60.800000000000004" rx="2" fill="url(#book)" stroke="#e2e8f0" stroke-width="1"/>
  
  <!-- Book pages -->
  <line x1="53.199999999999996" y1="53.199999999999996" x2="53.199999999999996" y2="98.8" stroke="#cbd5e1" stroke-width="1"/>
  <line x1="60.800000000000004" y1="53.199999999999996" x2="60.800000000000004" y2="98.8" stroke="#cbd5e1" stroke-width="1"/>
  <line x1="68.4" y1="53.199999999999996" x2="68.4" y2="98.8" stroke="#cbd5e1" stroke-width="1"/>
  <line x1="76" y1="53.199999999999996" x2="76" y2="98.8" stroke="#cbd5e1" stroke-width="1"/>
  <line x1="83.60000000000001" y1="53.199999999999996" x2="83.60000000000001" y2="98.8" stroke="#cbd5e1" stroke-width="1"/>
  <line x1="91.2" y1="53.199999999999996" x2="91.2" y2="98.8" stroke="#cbd5e1" stroke-width="1"/>
  <line x1="98.8" y1="53.199999999999996" x2="98.8" y2="98.8" stroke="#cbd5e1" stroke-width="1"/>
  
  <!-- Graduation cap -->
  <path d="M30.400000000000002 76 Q45.6 60.800000000000004 60.800000000000004 76 L91.2 76 Q106.39999999999999 60.800000000000004 121.60000000000001 76 L121.60000000000001 83.60000000000001 L30.400000000000002 83.60000000000001 Z" fill="#fbbf24"/>
  
  <!-- Tassel -->
  <line x1="121.60000000000001" y1="76" x2="129.2" y2="91.2" stroke="#f59e0b" stroke-width="2"/>
  <circle cx="129.2" cy="91.2" r="2" fill="#f59e0b"/>
  
  <!-- Communication lines -->
  <path d="M22.8 114 Q30.400000000000002 106.39999999999999 38 114" stroke="#ffffff" stroke-width="2" fill="none" opacity="0.8"/>
  <path d="M114 114 Q121.60000000000001 106.39999999999999 129.2 114" stroke="#ffffff" stroke-width="2" fill="none" opacity="0.8"/>
  
  <!-- Small dots for communication -->
  <circle cx="30.400000000000002" cy="114" r="1.5" fill="#ffffff" opacity="0.8"/>
  <circle cx="121.60000000000001" cy="114" r="1.5" fill="#ffffff" opacity="0.8"/>
</svg>